<svg version="1.1" id="Layer_1" xmlns="http://www.w3.org/2000/svg" xmlns:xlink="http://www.w3.org/1999/xlink" x="0px" y="0px" viewBox="-282.1 382.1 14 29.7" style="enable-background:new -282.1 382.1 14 29.7;" xml:space="preserve"><link xmlns="" type="text/css" rel="stylesheet" id="dark-mode-custom-link"/><link xmlns="" type="text/css" rel="stylesheet" id="dark-mode-general-link"/><style xmlns="" lang="en" type="text/css" id="dark-mode-custom-style"/><style xmlns="" lang="en" type="text/css" id="dark-mode-native-style"/><style xmlns="" lang="en" type="text/css" id="dark-mode-native-sheet"/>
<style type="text/css">
	.st0{fill:#FFFFFF;}
</style>
<path id="XMLID_3_" d="M-282.1,389.1c0-3.9,3.1-7,7-7s7,3.1,7,7s-3.1,7-7,7S-282.1,393-282.1,389.1z M-269.1,389.1c0-3.3-2.7-6-6-6  s-6,2.7-6,6s2.7,6,6,6S-269.1,392.4-269.1,389.1z"/>
<circle id="XMLID_56_" cx="-275.1" cy="389.1" r="3.4"/>
<path id="XMLID_2_" class="st0" d="M-282.1,404.9c0-3.9,3.1-7,7-7s7,3.1,7,7c0,3.9-3.1,7-7,7S-282.1,408.8-282.1,404.9z   M-269.1,404.9c0-3.3-2.7-6-6-6s-6,2.7-6,6c0,3.3,2.7,6,6,6S-269.1,408.1-269.1,404.9z"/>
<circle id="XMLID_1_" class="st0" cx="-275.1" cy="404.9" r="3.4"/>
</svg>