<svg version="1.1" id="Layer_1" xmlns="http://www.w3.org/2000/svg" xmlns:xlink="http://www.w3.org/1999/xlink" x="0px" y="0px" viewBox="-282.1 382.1 14 29.7" style="enable-background:new -282.1 382.1 14 29.7;" xml:space="preserve"><link xmlns="" type="text/css" rel="stylesheet" id="dark-mode-custom-link"/><link xmlns="" type="text/css" rel="stylesheet" id="dark-mode-general-link"/><style xmlns="" lang="en" type="text/css" id="dark-mode-custom-style"/><style xmlns="" lang="en" type="text/css" id="dark-mode-native-style"/><style xmlns="" lang="en" type="text/css" id="dark-mode-native-sheet"/>
<style type="text/css">
	.st0{fill:#FFFFFF;}
</style>
<path d="M-278.4,396.1l-0.6-3.1l-3.1-0.7l0.9-1.7l2.7-0.1c0.2-0.2,0.4-0.5,0.6-0.7l2.1-2.1l-5-2.4l1.7-1.7l6.3,1.1l2.1-2.1  c0.3-0.3,0.8-0.5,1.4-0.5c0.3,0,0.6,0.1,0.7,0.1l0.3,0.1l0.1,0.3c0.2,0.8,0.1,1.7-0.4,2.2l-2.1,2.1l1.1,6.3l-1.7,1.7l-2.4-5  l-1.9,1.9c-0.2,0.2-0.6,0.6-0.8,0.8l-0.2,2.5L-278.4,396.1z M-281.2,391.9l2.7,0.6l0.6,2.6l0.6-0.3l0.2-2.4l0.1-0.1  c0.2-0.2,0.7-0.6,0.9-0.9l2.6-2.6l2.4,5l0.8-0.8l-1.1-6.3l2.4-2.4c0.3-0.3,0.4-0.9,0.2-1.5c-0.1,0-0.3,0-0.5,0c-0.4,0-0.8,0.1-1,0.3  l-2.4,2.4l-6.3-1.1l-0.8,0.8l5,2.4l-2.7,2.7c-0.1,0.1-0.4,0.5-0.6,0.7l-0.1,0.1l-2.6,0.1L-281.2,391.9z"/>
<path class="st0" d="M-278.4,411.9l-0.6-3.1l-3.1-0.7l0.9-1.7l2.7-0.1c0.2-0.2,0.4-0.5,0.6-0.7l2.1-2.1l-5-2.4l1.7-1.7l6.3,1.1  l2.1-2.1c0.3-0.3,0.8-0.5,1.4-0.5c0.3,0,0.6,0.1,0.7,0.1l0.3,0.1l0.1,0.3c0.2,0.8,0.1,1.7-0.4,2.2l-2.1,2.1l1.1,6.3l-1.7,1.7l-2.4-5  l-1.9,1.9c-0.2,0.2-0.6,0.6-0.8,0.8l-0.2,2.5L-278.4,411.9z M-281.2,407.6l2.7,0.6l0.6,2.6l0.6-0.3l0.2-2.4l0.1-0.1  c0.2-0.2,0.7-0.6,0.9-0.9l2.6-2.6l2.4,5l0.8-0.8l-1.1-6.3l2.4-2.4c0.3-0.3,0.4-0.9,0.2-1.5c-0.1,0-0.3,0-0.5,0c-0.4,0-0.8,0.1-1,0.3  l-2.4,2.4l-6.3-1.1l-0.8,0.8l5,2.4l-2.7,2.7c-0.1,0.1-0.4,0.5-0.6,0.7l-0.1,0.1l-2.6,0.1L-281.2,407.6z"/>
</svg>